<svg
      xmlns="http://www.w3.org/2000/svg"
      width="800"
      height="800"
      version="1.1"
      viewBox="0 0 800 800"
      xmlSpace="preserve"
    >
      <defs>
        <clipPath id="clipPath9654" clipPathUnits="userSpaceOnUse">
          <path d="M0 600h600V0H0z"></path>
        </clipPath>
      </defs>
      <g transform="matrix(1.33333 0 0 -1.33333 0 800)">
        <g>
          <g
            fillOpacity="1"
            fillRule="nonzero"
            stroke="none"
            clipPath="url(#clipPath9654)"
          >
            <path
              fill="#26469f"
              d="M303.259 62.305c1.702.032 4.638.053 7.536.09l-8.262 9.467z"
            ></path>
            <path
              fill="#234fa9"
              d="M310.795 62.395c1.648.022 3.284.049 4.671.087 4.739.146 12.848.146 14.945.843 2.077.699 1.673 1.824 1.949 3.491.244 1.481-.6 3.925-.89 6.402l-28.937-1.356z"
            ></path>
            <path
              fill="#28419e"
              d="M298.16 75.307c.004-.197.007-.389.013-.578.077-2.782.262-5.41-.262-6.016-.523-.606-.96-.79-.786-1.745.042-.229.092-.49.146-.766l5.262 5.66z"
            ></path>
            <path
              fill="#293e9a"
              d="M298.997 63.917s0 .602-.08.844c-.078.237.053.606.053.606s.267-.479.238-.848c-.024-.37-.211-.602-.211-.602m-1.726 2.285c.168-.885.355-1.919.291-2.454-.09-.699.346-1.581.346-1.581s.439.441.524.79c.088.35.436.606.436.606s.437-.606.873-.862c.437-.277 1.047-.534 2.182-.441.221.017.691.031 1.336.045l-.726 9.557z"
            ></path>
            <path
              fill="#5266a7"
              d="M351.725 128.944l.074.764c.023.265.048.537.071.814l-.403.013z"
            ></path>
            <path
              fill="#1c60b6"
              d="M298.414 88.525c-.169-.597-.266-1.378-.241-2.449.081-3.528-.068-7.675-.013-10.769l4.373-3.445z"
            ></path>
            <path
              fill="#2966ba"
              d="M351.128 130.13a535.026 535.026 0 00-.89-8.402c-.467.935.179-.35-.316 1.876-.532 2.259 0 1.91-.349 3.306-.187.743-.083 1.092.004 1.361l-1.368-1.641-1.705-4.956c-2.283-5.13-6.478-10.187-11.424-12.432a8.092 8.092 0 00-1.847-.57l-.515-.617c3.648.392 7.523 2.855 12.476 9.609.296.403.592.85.844 1.305.611-.844 1.915-2.701 2.298-3.753.466-1.193.389-2.535.131-4.229-.179-.804-.383-1.619-.586-2.442-.311-.777-.592-1.324-.534-1.989-2.778-9.832-7.374-19.913-12.373-19.913-1.824 0-3.479 1.507-4.949 3.733-.312 1.416-.68 2.483-1.583 2.832h-.016c-1.025 2.073-1.905 4.389-2.629 6.549l-.271-.325c.649-1.878 1.401-4.058 2.328-6.113-1.121.126-2.612-.261-2.612-.261s-.218 2.716-.382 5.575l-2.769-3.32c.016-1.089.026-2.08.026-2.875-.099.368-.363 1.007-.676 2.095l-18.908-22.671 28.937 1.356c-.039.331-.069.663-.084.993-.148 2.72-.681 12.597-1.086 14.894a9.81 9.81 0 011.362-1.488c4.064-3.568 6.968-1.009 11.346 5.79 1.712 2.667 3.272 7.099 4.596 12.16.383-1.231.383-2.376.383-3.957 0-1.744-.513-2.793.185-4.537.698-1.751-.185-1.916 1.401-2.963 1.562-1.052 1.489-2.303 1.489-2.303s2.356 1.769 2.172 3.166c-.185 1.397.184 1.397 0 2.632-.185 1.212.348 1.377.184 2.261-.184.882-.184 1.909-.184 2.608 0 .699.184-.164.184 1.581 0 1.75.862 3.146.33 4.013-.514.865-.863 1.746-1.213 2.958-.348 1.232-.698 2.096-.698 3.143 0 1.047.18 3.145.18 3.145s-.349 1.219-.534 2.266c-.13.732-.421.95-.771 1.397.431 2.823.771 5.54 1.013 7.967l-.258 1.591z"
            ></path>
            <path
              fill="#186ebf"
              d="M313.489 105.896s-.021 0-.051.04c.032-.058.051-.04.051-.04"
            ></path>
            <path
              fill="#186ebf"
              d="M302.824 103.541c-.13.037-.232.097-.232.097s.016.034-.01.088a.181.181 0 01-.113.11s.018.034.044.053c.164.204.196.262.502.514.348.301 1.439.98 1.902 1.086.466.113.134-2.404.134-2.404s-1.475.271-2.227.456m2.451 6.293c-.755-.204-1.92-.427-2.595-.315-1.446.238-.847 1.381.317 2.298.553.441 1.176.829 2.24 1.363.068-.665.09-1.272.09-1.969 0-.388-.02-.884-.052-1.377m8.255-3.167c-.021-.013-.043-.052-.07-.092-.017-.019-.031-.054-.043-.073a.436.436 0 00.099.238c.005-.019.007-.038.014-.073m-.016.165c-.03-.015-.059-.034-.092-.053a.907.907 0 01-.112-.112c.004.02.011.054.022.093.053.204.237.257.358.276l-.004-.034a.569.569 0 01-.107-.15c-.036 0-.065 0-.065-.02m.23.204c-.012 0-.021-.019-.034-.019.002 0 .005.019.008.019zm.339.219c-.017-.02-.069 0-.087-.02-.034-.014-.034-.014-.034-.034-.02-.014-.036-.054-.058-.054-.063.02-.114.02-.121.02-.01 0-.012-.02-.017-.039h-.02a.382.382 0 00.143.145c.073 0 .136-.018.194-.018m-6.492 5.168l.296 1.712c.162.034.328.073.49.092.679.073 1.299.146 1.285.073a21.811 21.811 0 01-.182-1.12s-.328-.942.836-1.048c1.163-.111.91-.466 2.189-.466 1.146 0 1.552-.086 2.292.151-.004-.237 0-.568.038-1.047.065-.868-.056-2.298-.065-3.002-.002-.067-.396-.106-.391-.183h-.025c-.458-.199-.785-.068-.87.077.037-.126.161-.165.291-.204.158-.053.342.059.471.059.005-.039-.083-.059-.083-.097-.026 0-.017-.015-.024-.034H314.148v.019c.003-.019.018-.039-.038-.053h-.014c.011.014.021.014.029.014h-.054c-.034 0-.055.02-.05.02-.003-.02-.071-.034-.175-.073h.009c-.014 0-.043-.02-.087-.04h.078a.366.366 0 01-.136-.165c-.02 0-.039-.018-.061-.018-.3-.126-.359-.311-.359-.457a.448.448 0 01-.079-.183h-.003a.585.585 0 01.054-.388c-.018.039-.041.126-.041.309 0 .039.004.06.007.079.047 0 .104 0 .157.018h-.155a.305.305 0 00.064.127.34.34 0 01.019-.111.41.41 0 00-.01.131c.06.072.137.106.194.125a.385.385 0 01-.109-.272h-.003v-.018c-.131-.262-.022-.446.052-.514a.61.61 0 00-.078.184.434.434 0 00.034.29.364.364 0 01.053-.144.622.622 0 00-.031.202h.007a.769.769 0 00.116.165c-.002-.018.007-.077-.008-.149-.024 0-.077 0-.108-.016h.101c.007-.114.007-.168.022-.333.015-.146.03-.533.182-.718.109-.145-.082-.296-.202-.494-.103-.17-.263-.461-.334-.572-.07-.113.194-.219.293-.219.1 0 .2-.145.2-.243 0-.086-.071-.086-.071-.163 0-.054.112-.108.112-.108s-.1-.019-.08-.097c.022-.053.13-.086.14-.199.013-.131-.049-.131-.058-.276-.009-.146.058-.276.228-.35.143-.077.551-.057.815-.019v-3.053c-.301-.534-.82-1.194-1.072-1.563-.279-.387-.477-.988-.837-1.58-.359-.592-1.033-1.358-1.033-1.358s-.118.805-.156 1.397c-.042.585-.241 1.304-.318 2.055-.083.777-.359 1.397-.638 2.113-.277.719-.555.883-.555.883l.157.152-.356.643-.475.034s-.08.404.038.791c.121.408.558.645.837 1.16.277.518.159 1.104-.08 1.986-.24.864-.636 1.233-1.629 1.51-.301.091-.696.091-1.1.071l-.028 1.103.134-.016zm.876 5.056l.028.093 1.12.038.1-.697v-1.289l-.061-1.088-1.733-.256zm6.304-26.477l-2.741-.059-.047.151s-.045.144-.067.348c-.022.2-.182.7-.182.7l.456.381s.521.612.861.869c.342.257.726.974 1.091 1.431.142.184.378.48.629.815zm5.415 23.225v3.641l2.188.054c.037-.35.073-.771.073-1.271 0-1.542.553-1.396.277-2.371-.165-.587-.386-1.449-.57-1.983-.534-.078-.938-.02-1.396-.039-.313-.02-.572 0-.572.112.019.607 0 1.857 0 1.857m4.21 1.304c.039.093.056.165.076.256.533-.071 1.139-.105 1.6-.222 1.636-.364 2.354-1.396.845-2.095-.828-.402-1.783-.62-2.465-.751-.184.698-.386 1.6-.056 2.812m-2.955-20.998c-.327 1.129-.707 2.741-1.015 5.037-.11.848-1.068 2.133-1.411 2.467-.35.329-.648.437-.648.437l-.08-.074s-.186.112-.289.204c-.097.073-.218.316-.257.515-.038.218-.041.422.163.77.34.534.577 1.548.553 2.231-.031.97-.492 1.562-1.103 1.746.012.737-.058 2.648.014 3.437.028.257.052.548.073.843.133-.014.27-.014.421-.014 1.114 0 2.784-.116 4.22 0-.076-.184-.129-.349-.186-.499-.294-.698 0-.994-.148-4.195 0-.086 0-.183-.016-.271.053-.059.092-.097.092-.15 0-.296.195-6.935.267-11.704l2.769 3.32c-.063 1.114-.119 2.25-.151 3.255.129-.423.259-.864.425-1.325.126-.361.258-.741.392-1.131l.271.325a90.762 90.762 0 00-1.124 3.619v6.749c1.086-.757 2.795-1.619 5.169-1.988a10.936 10.936 0 012.876-.082l.515.617c-3.313-.604-6.686.828-8.56 1.822v.717c0 .534-.072.955-.185 1.338 1.748.408 3.056.887 3.329 1.566.185.5-.201 1.101-1.507 1.47-.643.183-1.416.281-1.822.35.221.736.553 1.493.811 2.064h.11c.623.948 4.013 6.097 8.763 13.271l-39.366 1.668c2.127-3.639 3.692-6.312 4.157-7.075 1.68-2.754 3.763-6.032 5.663-7.515 0-.038.003-.097.005-.15l.008-.112c.004-.038.007-.087.011-.146.002-.057.01-.111.017-.183l.025-.278c.04-.381.101-.896.201-1.652.154-1.144.253-1.896.323-2.52-.801-.35-1.445-.739-2.361-1.456-1.233-.97-1.863-2.313.028-2.463.93-.054 1.631.15 2.405.315-.078-1.231-.221-2.595-.221-2.595s-.785.127-2.006-.571c-1.223-.698-2.968-2.134-3.404-2.734-.435-.63-.67-1.107-.103-1.533.932-.712 3.257-1.43 3.257-1.43s-.079-2.226.011-3.715c.087-1.468.119-2.574.032-3.107-.087-.514-.071-.883-.071-.883s-1.728-.514-2.516-1.823c-.56-.93-1.432-1.291-1.853-2.787l4.119-16.663z"
            ></path>
            <path
              fill="#186ebf"
              d="M351.128 130.13l.339.405-.297.014-.042-.419"
            ></path>
            <path
              fill="#186ebf"
              d="M313.31 107.017c.107.17.145.15.281.204.058.034.114.034.17.052.031.02.058.02.085.04-.492-.112-.49-.185-.536-.296"
            ></path>
            <path
              fill="#186ebf"
              d="M349.627 128.812c.138.587.269 1.184.394 1.785l-.736.031a59.039 59.039 0 00-.725-2.981l-.351-1.017 1.368 1.641c.058.182.109.331.05.541"
            ></path>
            <path
              fill="#186ebf"
              d="M313.216 106.832c.278.258.455.389.552.441h-.007a2.161 2.161 0 01-.545-.441"
            ></path>
            <path
              fill="#443478"
              d="M135.807 420.643c-.544-6.395-.521-13.352.323-21.15l.122.853z"
            ></path>
            <path
              fill="#2a8dd1"
              d="M341.199 141.862l-16.007 17.657c-2.8-.314-8.336-.9-11.426-.996-4.257-.105-13.232 1.086-13.232 1.086s7.85 1.087 13.511.942c3.383-.08 8.124-.438 10.808-.657l-17.335 19.122-17.04-38.676 4.328-7.402 39.366-1.668a6686.71 6686.71 0 007.027 10.592"
            ></path>
            <path
              fill="#2a8dd1"
              d="M351.17 130.549l.297-.014-.27.297-.027-.283"
            ></path>
            <path
              fill="#2a8dd1"
              d="M350.273 131.852l-.602.665a74.016 74.016 0 00-.386-1.889l.736-.031c.088.416.171.835.252 1.255"
            ></path>
            <path fill="#747aa0" d="M351.87 130.522l.05.564-.453-.551z"></path>
            <path
              fill="#1477c7"
              d="M242.86 206.673a6375.9 6375.9 0 0115.352-19.393l3.317 15.296z"
            ></path>
            <path
              fill="#137ac9"
              d="M258.212 187.28c8.784-11.051 15.57-19.517 16.319-20.407.129-.151.346-.461.633-.895l-13.635 36.598z"
            ></path>
            <path
              fill="#55a0d8"
              d="M351.467 130.535l-.107 1.974c-.054-.564-.108-1.124-.163-1.677z"
            ></path>
            <path
              fill="#55a0d8"
              d="M341.355 162.093c3.674.717 8.272 1.174 8.272 1.174s-4.268-1.669-7.942-2.497c-3.662-.831-9.325-.7-9.325-.7s5.334 1.325 8.995 2.023m-16.502-2.199c1.257-.104 2.064-.177 2.064-.177s-.668-.079-1.725-.198l16.007-17.657.504.759c3.749 5.617 6.421 10.216 8.366 13.858l-2.227 41.34-40.324-18.803z"
            ></path>
            <path
              fill="#55a0d8"
              d="M349.671 132.517l.602-.665c.326 1.684.606 3.399.848 5.1l-.202 3.747c-.4-3.25-.814-5.918-1.248-8.182"
            ></path>
            <path
              fill="#769abb"
              d="M350.069 156.479a136.135 136.135 0 012.7 5.337 489.477 489.477 0 00-.514-7.337c-.435-5.547-.876-10.046-1.336-13.78l.202-3.747c1.061 7.446 1.412 14.638 1.764 17.877.291 2.705.384 5.625.417 8.108.334.683.61 1.269.848 1.784-.52-6.539-1.663-20.526-2.79-32.212l.107-1.974.453.551c.883 10.102 2.163 27.5 2.691 34.575.126.257.256.495.368.697 1.397 2.426 3.492 4.525 9.765 12.559 1.889 2.416 5.449 6.503 10.035 11.727l-26.937 7.175z"
            ></path>
            <path
              fill="#2191d5"
              d="M280.366 164.852s4.107-.349 7.418-1.6c3.307-1.251 7.646-3.313 7.646-3.313s-4.448.243-8.446 1.494c-3.995 1.251-6.618 3.419-6.618 3.419m-18.837 37.724l13.635-36.598c2.324-3.514 9.438-15.601 15.314-25.638l17.04 38.676z"
            ></path>
            <path
              fill="#0e87ce"
              d="M239.555 231.347l-12.454-4.541a3141.457 3141.457 0 0115.759-20.133l18.669-4.097z"
            ></path>
            <path
              fill="#76bfe4"
              d="M307.518 179.016l40.324 18.803-24.919 43.721z"
            ></path>
            <path
              fill="#58b2e0"
              d="M261.529 202.576l45.989-23.56 15.405 62.524z"
            ></path>
            <path
              fill="#afa4a6"
              d="M374.779 190.644c9.169 10.448 22.443 25.451 34.671 40.78l-61.608-33.605z"
            ></path>
            <path
              fill="#bfbfc2"
              d="M347.842 197.819l61.608 33.605c.128.158.255.318.382.477l-54.061 17.795z"
            ></path>
            <path
              fill="#a3cce0"
              d="M347.842 197.819l7.929 51.877-32.848-8.156z"
            ></path>
            <path
              fill="#49afde"
              d="M239.555 231.347l21.974-28.771 61.394 38.964z"
            ></path>
            <path
              fill="#1573c4"
              d="M219.882 236.21c2.037-2.691 4.493-5.887 7.219-9.404l12.454 4.541z"
            ></path>
            <path
              fill="#91ceea"
              d="M317.485 308.144l-77.93-76.797 83.368 10.193z"
            ></path>
            <path
              fill="#d89c8c"
              d="M355.771 249.696l54.061-17.795.265.333-7.206 70.7z"
            ></path>
            <path
              fill="#db5448"
              d="M410.097 232.234a514.35 514.35 0 015.253 6.724c11.484 14.966 25.38 34.513 37.012 51.845l-49.471 12.131z"
            ></path>
            <path
              fill="#389dda"
              d="M207.613 287.981l31.942-56.634 6.117 91.296z"
            ></path>
            <path
              fill="#7cc7e8"
              d="M245.672 322.643l-6.117-91.296 77.93 76.797z"
            ></path>
            <path
              fill="#127dcb"
              d="M207.613 287.981l-12.549-18.324c9.466-13.316 17.822-24.082 22.752-30.699.628-.843 1.319-1.761 2.066-2.748l19.673-4.863z"
            ></path>
            <path
              fill="#e7b3a1"
              d="M355.771 249.696l47.12 53.238-26.28 4.53z"
            ></path>
            <path
              fill="#c3e3f1"
              d="M322.923 241.54l32.848 8.156-38.286 58.448z"
            ></path>
            <path
              fill="#1a66ba"
              d="M188.063 279.7a636.163 636.163 0 017.001-10.043l12.549 18.324z"
            ></path>
            <path
              fill="#e3dfdb"
              d="M317.485 308.144l38.286-58.448 20.84 57.768z"
            ></path>
            <path
              fill="#1f5ab1"
              d="M173.021 302.993c4.959-8.179 10.07-16.012 15.042-23.293l19.55 8.281z"
            ></path>
            <path
              fill="#f3dbd0"
              d="M317.485 308.144l59.126-.68-18.123 42.137z"
            ></path>
            <path
              fill="#e83731"
              d="M402.891 302.934l49.471-12.131c2.438 3.63 4.772 7.16 6.967 10.532l-11.808 56.648z"
            ></path>
            <path
              fill="#e21e25"
              d="M459.329 301.335c5.161 7.932 9.536 14.983 12.565 20.335 3.793 6.709 8.275 15.709 12.347 26.384l-36.72 9.929z"
            ></path>
            <path
              fill="#206cbe"
              d="M202.176 349.601L158.292 329.6c4.513-9.093 9.536-18.039 14.729-26.607l34.592-15.012z"
            ></path>
            <path
              fill="#439ad7"
              d="M202.176 349.601l5.437-61.62 38.059 34.662z"
            ></path>
            <path
              fill="#c3def2"
              d="M245.672 322.643l71.813-14.499-9.741 48.253z"
            ></path>
            <path
              fill="#f25635"
              d="M402.891 302.934l44.63 55.049-38.74 1.586z"
            ></path>
            <path
              fill="#f28c6d"
              d="M376.611 307.464l26.28-4.53 5.89 56.635z"
            ></path>
            <path
              fill="#2353ab"
              d="M151.019 345.534a259.512 259.512 0 017.273-15.934l43.884 20.001z"
            ></path>
            <path
              fill="#f4f2ef"
              d="M307.744 356.397l9.741-48.253 41.003 41.457z"
            ></path>
            <path
              fill="#f7a884"
              d="M376.611 307.464l32.17 52.105-50.293-9.968z"
            ></path>
            <path
              fill="#63a3d1"
              d="M234.345 376.786l-32.169-27.185 43.496-26.958z"
            ></path>
            <path
              fill="#a4c8db"
              d="M234.345 376.786l11.327-54.143 62.072 33.754z"
            ></path>
            <path
              fill="#c0bdbc"
              d="M265.154 407.143l-30.809-30.357 54.596 23.334z"
            ></path>
            <path
              fill="#d1cbce"
              d="M288.941 400.12l-54.596-23.334 73.399-20.389z"
            ></path>
            <path
              fill="#4962ad"
              d="M136.252 400.346l65.924-50.745-3.398 45.535z"
            ></path>
            <path
              fill="#f6c9b1"
              d="M358.488 349.601l-2.717 49.386-48.027-42.59z"
            ></path>
            <path
              fill="#344da7"
              d="M136.252 400.346l-.122-.853c1.427-13.19 5.204-28.788 12.578-48.158a213.28 213.28 0 012.311-5.801l51.157 4.067z"
            ></path>
            <path
              fill="#e21e25"
              d="M447.521 357.983l36.72-9.929a192.678 192.678 0 016.093 18.757l-29.674 41.011z"
            ></path>
            <path
              fill="#d71e26"
              d="M490.334 366.811c3.771 14.047 6.234 29.846 5.764 46.481l-35.438-5.47z"
            ></path>
            <path
              fill="#f89c72"
              d="M358.488 349.601l50.293 9.968-53.01 39.418z"
            ></path>
            <path
              fill="#5b8abd"
              d="M198.778 395.136l3.398-45.535 32.169 27.185z"
            ></path>
            <path
              fill="#f35e32"
              d="M408.781 359.569l18.803 49.613-71.813-10.195z"
            ></path>
            <path
              fill="#ee2922"
              d="M408.781 359.569l38.74-1.586-19.937 51.199z"
            ></path>
            <path
              fill="#eec6b3"
              d="M307.744 356.397l48.027 42.59-66.83 1.133z"
            ></path>
            <path
              fill="#ec1c24"
              d="M447.521 357.983l13.139 49.839-33.076 1.36z"
            ></path>
            <path
              fill="#8d9fb6"
              d="M265.154 407.143l-66.376-12.007 35.567-18.35z"
            ></path>
            <path
              fill="#d91e26"
              d="M460.66 407.822l35.438 5.47c-.033 1.098-.074 2.2-.13 3.305a91.056 91.056 0 01-2.522 17.12l-27.802 12.391z"
            ></path>
            <path
              fill="#f0411e"
              d="M427.584 409.182l-30.811 47.572-41.002-57.767z"
            ></path>
            <path
              fill="#f2562a"
              d="M355.771 398.987l41.002 57.767-36.472-1.131z"
            ></path>
            <path
              fill="#f09278"
              d="M355.771 398.987l-42.59 72.267-24.24-71.134z"
            ></path>
            <path
              fill="#f46c45"
              d="M360.301 455.623l-47.12 15.631 42.59-72.267z"
            ></path>
            <path
              fill="#a99a9f"
              d="M266.287 446.334l-67.509-51.198 66.376 12.007z"
            ></path>
            <path
              fill="#8e6a86"
              d="M189.037 472.613l9.741-77.477 67.509 51.198z"
            ></path>
            <path
              fill="#583989"
              d="M198.778 395.136l-57.572 51.425c-.179-.564-.355-1.128-.524-1.691-2.262-7.496-4.117-15.32-4.875-24.227l.445-20.297z"
            ></path>
            <path
              fill="#743a80"
              d="M189.037 472.613l-44.534-17.027a114.803 114.803 0 01-3.297-9.025l57.572-51.425z"
            ></path>
            <path
              fill="#cb1f26"
              d="M465.644 446.108l27.802-12.391a93.68 93.68 0 01-6.995 19.116z"
            ></path>
            <path
              fill="#dc7e6a"
              d="M313.181 471.254l-46.894-24.92 22.654-46.214z"
            ></path>
            <path
              fill="#ca9f90"
              d="M266.287 446.334l-1.133-39.191 23.787-7.023z"
            ></path>
            <path
              fill="#e81d25"
              d="M460.66 407.822l4.984 38.286-38.06-36.926z"
            ></path>
            <path
              fill="#ed1c24"
              d="M427.584 409.182l38.06 36.926-68.871 10.646z"
            ></path>
            <path
              fill="#e11d25"
              d="M396.773 456.754l57.446 47.447c-6.026 8.248-15.021 17.653-28.354 26.51l-10.74 3.747z"
            ></path>
            <path
              fill="#69245a"
              d="M164.452 486.554c-8.654-8.857-15.287-19.708-19.949-30.968l44.534 17.027z"
            ></path>
            <path
              fill="#953b57"
              d="M217.807 520.639l-28.77-48.026 77.25-26.279z"
            ></path>
            <path
              fill="#cd4041"
              d="M313.181 471.254l-52.104 59.807 5.21-84.727z"
            ></path>
            <path
              fill="#ad2d43"
              d="M261.077 531.061l-43.27-10.422 48.48-74.305z"
            ></path>
            <path
              fill="#e21d25"
              d="M465.644 446.108l1.303 33.478c-.634.587-.992.888-.992.888s-1.961 10.34-11.736 23.727l-57.446-47.447z"
            ></path>
            <path
              fill="#cd1f26"
              d="M486.451 452.833c-7.278 14.742-16.505 23.979-19.504 26.753l-1.303-33.478z"
            ></path>
            <path
              fill="#ed1d24"
              d="M396.773 456.754l-29.449 51.879-7.023-53.01z"
            ></path>
            <path
              fill="#ef3525"
              d="M360.301 455.623l7.023 53.01-54.143-37.379z"
            ></path>
            <path
              fill="#eb1c24"
              d="M415.125 534.458l-47.801-25.825 29.449-51.879z"
            ></path>
            <path
              fill="#d71d2e"
              d="M316.126 519.053l-55.049 12.008 52.104-59.807z"
            ></path>
            <path
              fill="#ed2529"
              d="M367.324 508.633l-51.198 10.42-2.945-47.799z"
            ></path>
            <path
              fill="#732353"
              d="M217.807 520.639l-26.793-6.062c-4.345-5.903-6.182-10.845-8.108-14.214-6.937-3.581-13.083-8.311-18.454-13.809l24.585-13.941z"
            ></path>
            <path
              fill="#e61d25"
              d="M367.324 508.633l-25.373 46.039a50.098 50.098 0 01-4.555 1.711l-21.27-37.33z"
            ></path>
            <path
              fill="#6f2144"
              d="M214.755 534.924c-12.32-7.352-19.327-14.347-23.741-20.347l26.793 6.062z"
            ></path>
            <path
              fill="#e61d25"
              d="M415.125 534.458l-25.384 8.411c-15.995 1.031-27.795-3.067-27.795-3.067s-7.166 9.332-19.995 14.87l25.373-46.039z"
            ></path>
            <path
              fill="#da1e25"
              d="M414.978 536.753c-8.822 3.927-17.517 5.619-25.237 6.116l25.384-8.411z"
            ></path>
            <path
              fill="#992134"
              d="M261.077 531.061l-10.281 16.021c-7.714-.474-16.438-2.352-25.761-6.656l-7.228-19.787z"
            ></path>
            <path
              fill="#cc2027"
              d="M316.126 519.053l-6.275 38.022c-17.686-4.435-26.428-16.575-26.428-16.575s-4.377 2.601-11.843 4.564l-10.503-14.003z"
            ></path>
            <path
              fill="#c61f26"
              d="M425.865 530.711c-.36.238-.719.479-1.085.717a70.637 70.637 0 01-8.108 4.543l-1.547-1.513z"
            ></path>
            <path
              fill="#d81f26"
              d="M337.396 556.383a47.631 47.631 0 01-15.923 2.27 53.669 53.669 0 01-11.622-1.578l6.275-38.022z"
            ></path>
            <path
              fill="#832032"
              d="M225.035 540.426a82.1 82.1 0 01-4.086-2.021 139.946 139.946 0 01-6.194-3.481l3.052-14.285z"
            ></path>
            <path
              fill="#c42026"
              d="M416.672 535.971c-.566.27-1.131.531-1.694.782l.147-2.295z"
            ></path>
            <path
              fill="#b02228"
              d="M271.58 545.064a65.906 65.906 0 01-20.784 2.018l10.281-16.021z"
            ></path>
          </g>
        </g>
      </g>
    </svg>
