<svg
  xmlns="http://www.w3.org/2000/svg"
  width="1066.667"
  height="1066.667"
  version="1.1"
  viewBox="0 0 1066.667 1066.667"
  xmlSpace="preserve"
>
  <defs>
    <clipPath id="clipPath5158" clipPathUnits="userSpaceOnUse">
      <path d="M0 800h800V0H0z"></path>
    </clipPath>
  </defs>
  <g transform="matrix(1.33333 0 0 -1.33333 0 1066.667)">
    <g>
      <g
        fillOpacity="1"
        fillRule="nonzero"
        stroke="none"
        clipPath="url(#clipPath5158)"
      >
        <path
          fill="#14b4ec"
          d="M590.297 279.059a708.5 708.5 0 001.441 5.632 79.51 79.51 0 01.856 5.403l-8.553 1.742z"
        ></path>
        <path
          fill="#67d7ef"
          d="M592.594 290.094c.382 3.061.597 6.138.689 9.226l-9.242-7.484z"
        ></path>
        <path
          fill="#dcf07c"
          d="M588.428 362.791l-.252 1.874c-2.151 3.528-2.856 7.324-2.116 11.356-.203 1.413-.673 4.235-.909 5.647-.603 1.074-1.78 3.224-2.383 4.3-.038 1.413-.069 4.201-.102 5.613l-.738 2.788a796.825 796.825 0 01-2.623 7.763l-.942 2.787c-.738 1.883-2.25 5.679-2.988 7.56-.809 1.815-2.42 5.48-3.229 7.293l-.009.023-28.274-42.878z"
        ></path>
        <path
          fill="#31bded"
          d="M572.277 275.586c.117-2.977-.687-5.801-2.416-8.47l-.804-2.822c-.639-1.981-1.849-5.88-2.487-7.828l-.74-2.79c0-1.376-.068-4.133-.068-5.545-.571-1.039-1.711-3.192-2.283-4.232v-2.721c.033-2.119.136-6.32.167-8.402 1.649-.672 4.907-2.016 6.521-2.688l2.62-.068c1.543.74 4.704 2.184 6.285 2.924.703.806 2.08 2.452 2.787 3.258l.638 2.017a197.05 197.05 0 002.219 3.497l.77 2.249v2.52c-.671 3.967.238 7.527 2.659 10.654 1.375 6.349 1.81 12.902 1.511 19.354.166.679.393 1.585.641 2.566l-6.256 12.777z"
        ></path>
        <path
          fill="#31bded"
          d="M503.404 148.659c.422.63.825 1.236 1.102 1.658l.908 2.117c.639.874 1.917 2.653 2.552 3.527.572 1.008 1.718 2.99 2.286 3.999l1.143 2.184c.572 1.11 1.679 3.327 2.251 4.436l1.143 2.452a685.944 685.944 0 003.295 7.258 811.713 811.713 0 012.754 7.661c.401 1.412 1.176 4.269 1.578 5.681.472 1.948 1.48 5.912 1.983 7.862.269 2.185.806 6.587 1.077 8.771a28.27 28.27 0 00-.197 4.402l-42.468-58.664z"
        ></path>
        <path
          fill="#0181dd"
          d="M486.406 127.582c.676.811 2.043 2.477 2.742 3.277.709.809 2.12 2.421 2.825 3.192.705.809 2.15 2.455 2.857 3.262.703.839 2.115 2.554 2.856 3.428.704.905 2.116 2.754 2.822 3.661l1.379 2.017c.381.552.966 1.416 1.517 2.24l-20.593 3.344z"
        ></path>
        <path
          fill="#0181dd"
          d="M509.748 52.199c.673.703 2.051 2.151 2.754 2.857.74.703 2.253 2.115 3.024 2.821a237.38 237.38 0 003.497 2.62c1.077.439 3.26 1.278 4.334 1.714 1.952.436 5.815 1.245 7.763 1.681l2.421.637c1.073-.099 3.258-.301 4.367-.401 1.141.233 3.426.737 4.569.974.771.805 2.252 2.418 2.992 3.192l.604 2.185c-1.817 2.619-2.657 5.475-2.554 8.602-.607.772-1.814 2.352-2.418 3.124-.671.672-2.085 2.016-2.756 2.688-.874.603-2.589 1.848-3.429 2.486l-2.115 1.177c-1.781.773-5.346 2.252-7.125 3.023l-2.756.84c-4.232-.47-8.098.47-11.594 2.791-5.047.806-14.589 2.304-20.633 3.263l7.96-54.051 1.921.385a155.15 155.15 0 013.629 1.679l1.379 1.479c.74.639 2.217 1.914 2.99 2.585z"
        ></path>
        <path
          fill="#e65100"
          d="M393.818 739.692c-1.292.45-2.555.887-3.422 1.182l-2.792.808c-1.981.603-5.945 1.746-7.93 2.317l-2.956.605-3.058.369c-6.618-.167-13.239-.302-19.825-.571a380.361 380.361 0 01-6.049-1.545v-.002a302.015 302.015 0 01-5.006-1.813l-2.42-.941-.803-.496 43.598-3.456z"
        ></path>
        <path
          fill="#8bebdb"
          d="M571.85 283.525c.007-1.587.029-3.782.029-5.015.228-.991.36-1.965.398-2.924l11.764 16.25z"
        ></path>
        <path
          fill="#8bebdb"
          d="M482.811 152.003l42.468 58.664c.117 3.44.873 6.817 2.313 9.979 1.764 11.265 2.192 22.661 2.015 34.084l-59.402-40.492z"
        ></path>
        <path
          fill="#b7f3bb"
          d="M584.041 291.836l9.242 7.484c.349 11.856-1.126 23.849-1.983 35.538-1.445 5.847-2.251 11.864-1.88 17.878l-.034 2.922-.958 7.133-44.565 14.126z"
        ></path>
        <path
          fill="#b16559"
          d="M264.05 44.437c1.008-.47 2.99-1.448 3.965-1.917 1.243-.1 3.73-.336 4.973-.47l2.452.405c1.077.367 3.293 1.073 4.368 1.443l.138.065-19.19 2.701c.849-.576 2.464-1.695 3.294-2.227"
        ></path>
        <path
          fill="#f2da4a"
          d="M572.137 419.795l-1.065 2.464a299.073 299.073 0 01-2.081 4.536l-1.076 2.284c-.538 1.109-1.612 3.294-2.116 4.368l-1.145 2.252c-.536 1.109-1.679 3.261-2.216 4.334l-1.176 2.253c-.573 1.073-1.748 3.192-2.321 4.266l-1.175 2.184a258.142 258.142 0 00-2.352 4.033c-.639.908-1.949 2.721-2.59 3.629l-.871 2.219c-.603 1.008-1.882 3.056-2.488 4.064l-1.344 2.153c-.636 1.008-1.979 3.056-2.621 4.063a278.948 278.948 0 00-2.654 4.067l-1.377 2.152c-.623.936-1.852 2.738-2.564 3.798l4.958-101.997z"
        ></path>
        <path
          fill="#fb6100"
          d="M449.444 596.138c-.245.348-.469.667-.649.918-.641.877-1.916 2.622-2.588 3.528l-.873 2.118c-.571 1.042-1.647 3.09-2.184 4.098l-1.076 2.221c-.603.971-1.779 2.988-2.351 3.964l-.504 2.588-.978 2.62c-.671 2.016-2.015 6.08-2.687 8.096.472 11.798.403 23.69.236 35.385.808 1.95 2.386 5.847 3.16 7.794l1.41 2.321c.672.974 2.017 2.955 2.689 3.931.705.84 2.082 2.587 2.79 3.462.704.839 2.082 2.519 2.788 3.36.703.872 2.115 2.586 2.822 3.459l1.176 1.949c.774.808 2.286 2.419 3.059 3.193.74.874 2.283 2.586 3.054 3.426l.709 2.219.536 2.185 2.285.637 2.32.808c.939.806 2.756 2.418 3.696 3.259 1.008.739 2.989 2.285 3.997 3.057l2.152 1.513c1.007.705 3.057 2.116 4.099 2.822.909.706 2.757 2.118 3.697 2.822l2.215.941c1.046.64 3.062 1.915 4.07 2.555l2.082 1.277c.904.638 2.79 1.915 3.695 2.553.775.706 2.287 2.117 3.059 2.823l1.712 1.107c.876.505 2.556 1.48 3.428 1.984.137 2.083.405 6.217.573 8.3l-2.452 1.141c-1.345.102-3.968.304-5.277.405-1.076-.471-3.227-1.378-4.301-1.848-3.863-.236-7.697-.27-11.527-.068-2.207-.018-4.416-.07-6.623-.157l-82.244-119.68z"
        ></path>
        <path
          fill="#d8f890"
          d="M543.863 376.917l-121.319-39.783 104.321-29.261c-.4 5.194-.877 11.387-1.156 15.057l-.134 2.924a149.642 149.642 0 01-1.747 15.019c-1.445 6.957-.572 13.811 2.656 20.497.57.874 1.745 2.589 2.316 3.463.908.538 2.688 1.612 3.596 2.149 3.058 3.093 5.208 2.555 6.552-1.611l3.093-2.688 1.107-1.817c.573-.871 1.748-2.688 2.321-3.559l1.209-1.883c.571-.908 1.748-2.722 2.319-3.63.605-.872 1.812-2.654 2.418-3.528l.841-2.185c.605-1.073 1.813-3.258 2.418-4.334l1.312-2.452c.638-1.95 1.916-5.846 2.52-7.797.74-.806 2.15-2.418 2.855-3.191l.605-2.586.84-2.657a744.01 744.01 0 002.657-7.829l.871-2.855c2.451-3.326 3.461-7.057 3.024-11.189l.605-2.89a13.345 13.345 0 001.77-3.013l12.308-3.452z"
        ></path>
        <path
          fill="#c5f5c1"
          d="M571.733 295.288c1.029-2.458 1.181-5.108.451-7.942l-.337-2.857.003-.964 12.191 8.311z"
        ></path>
        <path
          fill="#c5f5c1"
          d="M470.205 214.238l59.402 40.492c-.244 15.769-1.64 31.591-2.283 47.199l-.459 5.944-104.321 29.261z"
        ></path>
        <path
          fill="#f55a00"
          d="M390.639 615.224l82.244 119.68a203.097 203.097 0 01-19.418-1.692c-5.106 0-15.323.034-20.432.069-5.377.403-16.16 1.242-21.537 1.646-4.031-.874-7.66-.034-10.889 2.519l-2.72.841c-1.013.343-2.561.882-4.069 1.405l-10.663-3.543z"
        ></path>
        <path
          fill="#6cb0c4"
          d="M488.613 98.804l-2.924-.034-2.756-.1-.033 2.318-.168 2.386c.135 4.468.405 13.44.537 17.943l.908 2.318c.538.976 1.648 2.959 2.218 3.933l.011.014-3.595 24.421-40.696-53.073c.067-1.201.137-2.471.196-3.284l.503-2.823c.235-1.981.704-5.948.94-7.93l-1.344-8.065a549.21 549.21 0 01-1.209-4.468c-.439-1.007-1.379-3.024-1.814-4.066l-.909-2.118c-.404-1.109-1.276-3.292-1.68-4.369-.368-1.242-1.076-3.727-1.444-4.972.872-3.395.638-6.755-.707-10.046l1.143-2.085 1.917-1.141c.534-.773 1.58-2.285 2.083-3.059l2.651.672c1.28.236 3.799.74 5.079 1.008 1.007.47 3.023 1.478 4.031 1.951.872.535 2.652 1.578 3.528 2.115.905.539 2.689 1.547 3.595 2.085 1.008.436 3.057 1.31 4.065 1.745l2.319.806c2.184 4.235 4.77 4.437 7.728.673l2.754-.303c1.344-.167 4.032-.537 5.376-.706 1.008-.57 3.023-1.68 4.033-2.249.977-.439 2.893-1.378 3.864-1.815.976-.37 2.856-1.144 3.798-1.511l2.051-.069c.974-.134 2.924-.37 3.896-.504l.095.02-7.96 54.051c-.752.119-1.452.23-2.08.331"
        ></path>
        <path
          fill="#ffd100"
          d="M422.544 337.134l112.069 148.282a440.981 440.981 0 01-2.621 3.845c-.414.621-1.069 1.624-1.668 2.539l-149.927 26.92z"
        ></path>
        <path
          fill="#f9ed2d"
          d="M543.863 376.917l-4.958 101.997-.156.234a287.888 287.888 0 00-2.657 4.033l-1.375 2.082-.104.153-112.069-148.282z"
        ></path>
        <path
          fill="#fd9d00"
          d="M530.324 491.8c-.374.57-.726 1.106-.984 1.493l-1.38 2.084c-.673 1.009-2.017 2.99-2.689 3.998-.671 1.009-2.015 3.024-2.689 4.033l-1.375 2.081c-.672 1.008-2.016 3.025-2.723 4.032-.671 1.008-2.015 3.025-2.687 4.07l-1.41 2.116c-.708 1.008-2.084 3.024-2.79 4.032a310.457 310.457 0 01-2.754 4.032l-1.447 2.116c-.706.976-2.082 2.925-2.791 3.898-.703.906-2.082 2.791-2.753 3.696-.738.874-2.218 2.555-2.921 3.395l-1.146 2.048c-.703.908-2.183 2.756-2.924 3.665-.738.907-2.215 2.72-2.988 3.628-.74.908-2.286 2.756-3.023 3.664-.775.94-2.321 2.856-3.093 3.827l-1.649 2.017c-.135.166-.303.369-.481.584l-103.23-37.589z"
        ></path>
        <path
          fill="#ff9300"
          d="M380.397 518.72l103.23 37.589a316.124 316.124 0 01-2.674 3.18c-.808.908-2.389 2.689-3.16 3.563l-3.193 3.462c-.805.84-2.383 2.52-3.192 3.36-.806.841-2.421 2.521-3.193 3.36-.805.84-2.383 2.521-3.192 3.361-.805.872-2.351 2.586-3.158 3.46-.773.872-2.318 2.688-3.09 3.559-.74.977-2.252 2.857-2.992 3.833l-1.512 2.017c-.704.974-2.15 2.887-2.857 3.83-.467.69-1.295 1.885-1.97 2.844l-58.805 19.086z"
        ></path>
        <path
          fill="#cbf387"
          d="M470.205 214.238l-47.661 122.896-12.21-114.23z"
        ></path>
        <path
          fill="#8bcfa3"
          d="M389.457 137.429l-.329-30.273c2.526-.227 5.772-.537 7.615-.689 5.816-.103 17.442-.305 23.253-.404 6.484-.604 12.77-2.253 19.02-4.034l2.959-.77c.043-.599.09-1.446.14-2.329l40.696 53.073z"
        ></path>
        <path
          fill="#96eaa2"
          d="M410.334 222.904l72.477-70.901-12.606 62.235z"
        ></path>
        <path
          fill="#9ae292"
          d="M389.457 137.429l93.354 14.574-72.477 70.901z"
        ></path>
        <path
          fill="#ffce00"
          d="M380.397 518.72l-90.989-144.166 133.136-37.42z"
        ></path>
        <path
          fill="#f0d03c"
          d="M289.408 374.554l-37.814-146.135 158.74-5.515z"
        ></path>
        <path
          fill="#f6e63a"
          d="M422.544 337.134l-133.136 37.42 120.926-151.65z"
        ></path>
        <path
          fill="#fb6800"
          d="M383.155 736.149L298.68 634.544l-.255-19.073c-.753-3.832-1.338-7.719-1.645-11.634l93.859 11.387z"
        ></path>
        <path
          fill="#c7df6f"
          d="M251.594 228.419l137.863-90.99 20.877 85.475z"
        ></path>
        <path
          fill="#feb200"
          d="M380.397 518.72l-148.121-37.653c-.695-.98-1.522-2.133-2.031-2.827l-1.04-2.219c-.706-.874-2.152-2.687-2.891-3.595-.672-.975-1.981-2.888-2.654-3.864l-.59-1.279 66.338-92.729z"
        ></path>
        <path
          fill="#f35c00"
          d="M339.557 739.605c-1.026-.63-2.377-1.457-3.13-1.923l-2.283-.606a408.714 408.714 0 01-4.101-2.419l-2.116-1.276c-.974-.639-2.956-1.983-3.964-2.621-.977-.705-2.924-2.084-3.864-2.756l-2.016-1.479c-.909-.772-2.723-2.252-3.63-3.023-.806-.773-2.453-2.353-3.293-3.125-.74-.841-2.251-2.487-2.991-3.328-.671-.906-2.015-2.688-2.655-3.595l-1.007-2.016-2.957-2.822c-.034-1.479-.101-4.403-.168-5.881-.672-1.175-2.05-3.495-2.722-4.637-.336-1.546-.973-4.603-1.31-6.15l-.269-3.158c-.135-5.88-.403-17.673-.504-23.554l.067-3.26c.302-8.805 1.008-17.607 2.05-26.413l-.014-1.019 84.475 101.605z"
        ></path>
        <path
          fill="#b5b995"
          d="M358.339 116.805l1.88-.291c1.042-.539 3.058-1.648 4.098-2.185l2.52-.909c1.951-.637 5.849-1.982 7.766-2.653l2.855-.84c1.444.034 4.332.134 5.779.168l2.754.099 1.044-2.856c.583-.047 1.304-.11 2.093-.182l.329 30.273z"
        ></path>
        <path
          fill="#b5b995"
          d="M257.7 49.106c.771-.603 2.283-1.813 3.024-2.42l.032-.022 19.19-2.701c1.044.488 2.93 1.399 3.895 1.851l2.05 1.075c.974.537 2.923 1.645 3.899 2.183 1.041.504 3.124 1.448 4.166 1.95l2.318.907c4.368 3.024 9.913 2.99 14.416.27 1.04-.337 3.125-1.008 4.165-1.344l2.083-.572c1.008-.168 3.024-.47 4.069-.603 1.008.099 3.024.366 4.032.503.803.504 2.384 1.544 3.192 2.082.368.839 1.139 2.588 1.544 3.462 0 1.04 0 3.09.034 4.132-.336.909-1.042 2.788-1.378 3.731l-.47 2.015c-.57.875-1.68 2.655-2.25 3.529-.672.84-1.985 2.52-2.657 3.36-.703.807-2.15 2.452-2.856 3.292-.74.806-2.216 2.455-2.99 3.295-.737.84-2.218 2.521-2.958 3.36-.654.842-1.913 2.433-2.655 3.381l-54.548-36.153.653-.563"
        ></path>
        <path
          fill="#c2b266"
          d="M249.533 142.696l.572-2.191c.571-.975 1.68-2.956 2.251-3.934l.605-2.317c.571-1.008 1.714-3.059 2.286-4.066l.503-2.62.941-2.689c2.319-3.562 2.924-7.392 1.713-11.459-.335-2.184-1.074-6.486-1.445-8.67a260.264 260.264 0 01-1.848-4.469 143.225 143.225 0 01-3.024-3.292l-2.284-1.107-7.125-2.689c-.731-.701-2.091-2.089-2.89-2.889l12.074-36.372c.887-.708 2.145-1.71 2.846-2.272a170.87 170.87 0 002.339-1.991l54.548 36.153-.166.213c-.638.974-1.915 2.958-2.554 3.933-.436 1.176-1.276 3.494-1.713 4.67-.269 1.378-.808 4.1-1.109 5.444l-2.689.234c.673.774 2.051 2.318 2.723 3.092l.637 2.185.539 2.115c.504.908 1.477 2.688 1.982 3.563.706.772 2.083 2.284 2.755 3.024l1.815 1.244c.908.604 2.687 1.848 3.561 2.452l2.318.772 2.387 1.008c1.175.404 3.562 1.144 4.738 1.546 5.342-.469 16.061-1.379 21.406-1.848l2.856-.336 2.651-.234a493.166 493.166 0 014.101-2.015l.506-.079 31.118 20.624z"
        ></path>
        <path
          fill="#d3bf53"
          d="M251.594 228.419l-18.056-51.759.067-.503.942-2.421a253.548 253.548 0 001.949-4.57l1.008-2.318 2.286-4.032.57-2.353c.605-.974 1.848-2.989 2.486-3.997l.707-2.521c.84-1.749 2.587-5.307 3.461-7.056a268.985 268.985 0 012.486-4.067l.033-.126 139.924-5.267z"
        ></path>
        <path
          fill="#ff8500"
          d="M390.639 615.224l-93.859-11.387a73.974 73.974 0 01-.237-6.613c-.571-1.983-1.781-5.881-2.352-7.863l-.774-2.822c-.228-.621-.524-1.448-.842-2.347l87.822-65.472z"
        ></path>
        <path
          fill="#fe9400"
          d="M292.575 584.192c-.663-1.871-1.424-4.054-1.878-5.347l-.941-2.757c-.774-1.779-2.318-5.41-3.092-7.225l-.503-2.519a242.62 242.62 0 00-2.353-3.93l-1.007-2.287c-.539-1.107-1.58-3.326-2.118-4.434l-1.109-2.352c-.571-1.111-1.713-3.361-2.286-4.471l-1.176-2.351a499.02 499.02 0 00-2.419-4.502l-1.277-2.285c-.603-1.076-1.814-3.226-2.451-4.268l-.942-2.253c-.672-.905-1.983-2.719-2.655-3.628-.638-.974-1.915-2.888-2.553-3.864l-1.008-2.116c-.706-.908-2.117-2.657-2.824-3.562-.672-.942-2.048-2.856-2.721-3.83-.706-1.009-2.151-2.993-2.856-4.001l-1.479-2.116c-.739-1.008-2.151-3.056-2.888-4.064a431.983 431.983 0 01-2.825-3.932l-1.074-2.153c-.74-.906-2.217-2.651-2.957-3.528-.705-.972-2.084-2.922-2.788-3.896-.741-1.008-2.185-3.024-2.925-4.032l-1.478-2.153a180.02 180.02 0 01-2.89-4.098c-.22-.314-.51-.725-.826-1.171l148.121 37.653z"
        ></path>
        <path
          fill="#fb9b00"
          d="M289.408 374.554l-43.933.241.934-1.259 2.217-.741-.167-2.485-.135-2.587c.067-1.38.235-4.1.302-5.479-.335-1.981-1.042-5.914-1.377-7.896l-.605-2.79c-.067-1.376-.201-4.164-.269-5.545-.604-1.039-1.849-3.156-2.452-4.2l-.673-2.652c-.604-1.885-1.815-5.681-2.386-7.597l-.874-2.753c-.604-1.952-1.78-5.815-2.385-7.763-.336-1.444-1.042-4.3-1.378-5.712-.571-1.914-1.747-5.778-2.318-7.695l-.773-2.754a641.11 641.11 0 01-2.352-7.56 452.427 452.427 0 01-1.277-5.613c-.571-1.916-1.748-5.681-2.319-7.561l-.773-2.721c-.605-1.883-1.848-5.645-2.453-7.493l-.638-2.822a15.75 15.75 0 00.149-3.705l28.121-38.993z"
        ></path>
        <path
          fill="#fb9b00"
          d="M176.853 368.125l-.841-2.754c-.605-1.916-1.781-5.78-2.386-7.697-.336-1.412-1.008-4.269-1.31-5.712-.605-1.948-1.781-5.813-2.386-7.729l-.516-1.862 19.156-26.563.043.065 1.378 2.219a258.557 258.557 0 012.62 4.166l.942 2.287c.705.905 2.117 2.754 2.788 3.695.672 1.009 2.016 3.057 2.689 4.065l1.378 2.152c.705 1.04 2.049 3.056 2.755 4.098.705.973 2.083 2.922 2.789 3.898l1.075 2.116c.739.84 2.184 2.589 2.924 3.428l2.821 3.629c.707.908 2.185 2.722 2.891 3.63.773.906 2.251 2.754 3.024 3.662l1.546 1.917c.772.872 2.284 2.62 3.024 3.491.806.809 2.352 2.389 3.125 3.161.84.706 2.487 2.084 3.326 2.788l1.748 1.344c.839.641 2.52 1.882 3.36 2.521l1.128.707-56.684.31c-.68-1.995-1.824-5.311-2.407-7.032"
        ></path>
        <path
          fill="#ffa300"
          d="M223.07 467.283l-.418-.906c-.672-.871-2.05-2.688-2.755-3.56-.639-.976-1.916-2.924-2.554-3.901l-.907-2.147c-.672-.908-2.017-2.756-2.688-3.665-.605-1.008-1.816-3.092-2.454-4.1l-1.242-2.25c-.606-1.11-1.816-3.295-2.42-4.402l-1.244-2.319c-.571-1.141-1.747-3.393-2.318-4.502l-1.142-2.351c-.572-1.146-1.68-3.43-2.252-4.572l-1.108-2.385c-.538-1.176-1.613-3.494-2.151-4.67l-1.11-2.521c-.806-1.782-2.385-5.343-3.192-7.122l-.469-2.489-2.286-3.896-.907-2.286a581.41 581.41 0 00-1.882-4.502l-.974-2.489c-.672-1.848-2.05-5.575-2.722-7.424l-.94-2.756c-.64-1.88-1.983-5.713-2.622-7.629l-.874-2.753-.179-.529 56.684-.31c.866.542 1.86 1.162 2.467 1.545 2.789 3.662 4.973 3.326 6.552-.909l.512-.688 43.933-.241z"
        ></path>
        <path
          fill="#f56500"
          d="M223.473 267.412c-.219-2.675-1.167-5.178-2.837-7.52a416.818 416.818 0 01-.874-6.248c.135-4.303.067-8.605-.134-12.937v-6.486c.065-1.387.11-2.779.145-4.172l31.821-1.63z"
        ></path>
        <path
          fill="#f56500"
          d="M169.158 341.445c-.639-1.947-1.848-5.78-2.487-7.697l-.705-2.754c-.069-1.378-.237-4.135-.304-5.478-.638-1.039-1.848-3.124-2.486-4.163l-.571-2.624a629.995 629.995 0 01-2.084-7.625c-.336-1.413-.974-4.238-1.31-5.647 1.008-3.799.539-7.458-1.344-10.955a487.401 487.401 0 01-1.546-5.544c2.016-.639 6.048-1.88 8.064-2.52.606.671 1.816 2.05 2.421 2.722l1.78.974c.807.672 2.42 1.984 3.192 2.656.773.804 2.252 2.418 2.991 3.192l1.445 1.88c.705.94 2.116 2.788 2.788 3.731.706.973 2.084 2.958 2.79 3.929l1.411 2.119c.672 1.008 2.015 3.058 2.722 4.097.658 1.025 1.961 3.01 2.645 4.07l-19.156 26.563z"
        ></path>
        <path
          fill="#bc5024"
          d="M239.654 90.169l-2.419-.773c-1.814-.775-5.443-2.319-7.225-3.091l-2.452-1.11c-1.109-.57-3.293-1.746-4.369-2.318l-2.083-1.245c-.873-.535-2.688-1.611-3.595-2.15l-2.184-.401c-.168-4.94-.673-9.913-1.075-14.888l-.169-3.024 6.486-.94a186.285 186.285 0 0126.243-4.2 265.094 265.094 0 014.57-1.715l.48-.382-12.074 36.372-.134-.135"
        ></path>
        <path
          fill="#e07000"
          d="M219.773 230.049c.073-2.929.081-5.871-.011-8.831.235-1.546.739-4.704.975-6.284a712.478 712.478 0 012.352-8.165l.908-2.856c.671-1.951 2.016-5.915 2.688-7.865l.94-2.822c.638-1.914 1.949-5.812 2.588-7.729l.872-2.586c.539-1.076 1.648-3.16 2.185-4.233l.268-2.018 18.056 51.759z"
        ></path>
      </g>
    </g>
  </g>
</svg>
