<svg
  xmlns="http://www.w3.org/2000/svg"
  width="1066.667"
  height="1066.667"
  version="1.1"
  viewBox="0 0 1066.667 1066.667"
  xmlSpace="preserve"
>
  <defs>
    <clipPath id="clipPath20357" clipPathUnits="userSpaceOnUse">
      <path d="M0 800h800V0H0z"></path>
    </clipPath>
  </defs>
  <g transform="matrix(1.33333 0 0 -1.33333 0 1066.667)">
    <g>
      <g
        fillOpacity="1"
        fillRule="nonzero"
        stroke="none"
        clipPath="url(#clipPath20357)"
      >
        <path
          fill="#ff5600"
          d="M658.092 611.151c-8.311 19.46-17.461 38.529-27.875 56.964a99.827 99.827 0 01-3.19 2.605l-9.572-1.604z"
        ></path>
        <path
          fill="#ff8500"
          d="M557.496 545.844l134.942-27.783c-10.449 31.379-21.372 62.712-34.346 93.09l-40.637 57.965z"
        ></path>
        <path
          fill="#ffb43e"
          d="M629.266 419.105c16.922 2.426 32.747 4.775 40.041 6.282 17.381.966 33.556 3.162 42.749 10.221-.337 8.257-5.226 23.79-8.625 49.148-1.103 3.346-2.204 6.694-3.306 10.045l-113.278-63.006z"
        ></path>
        <path
          fill="#ba9b61"
          d="M579.432 274.714c-.252 2.029-.504 4.056-.76 6.082l-10.274-7.075z"
        ></path>
        <path
          fill="#747f5d"
          d="M558.335 174.348l29.642-11.411c-.986 9.042-1.901 18.374-2.645 27.714z"
        ></path>
        <path
          fill="#94a169"
          d="M558.335 174.348l26.997 16.303c-1.305 16.357-2.081 32.743-1.763 47.653-1.233 12.224-2.646 24.345-4.137 36.41l-11.034-.993z"
        ></path>
        <path
          fill="#e2c559"
          d="M584.614 412.667c11.681 1.784 28.655 4.146 44.652 6.438l-42.419 12.69z"
        ></path>
        <path
          fill="#e2c559"
          d="M578.672 280.796c-1.62 12.878-3.311 25.7-4.953 38.517l-5.321-45.592z"
        ></path>
        <path
          fill="#547a58"
          d="M557.305 133.473c11.627.448 22.984.893 33.992 1.315-1.097 8.799-2.248 18.303-3.32 28.149l-29.642 11.411z"
        ></path>
        <path
          fill="#ffb729"
          d="M586.847 431.795l113.278 63.006a6865.538 6865.538 0 01-7.687 23.26l-134.942 27.783z"
        ></path>
        <path
          fill="#fe2900"
          d="M627.027 670.72a105.995 105.995 0 01-5.586 4.093l-3.986-5.697z"
        ></path>
        <path
          fill="#ff2e00"
          d="M621.441 674.813c-4.35 2.978-8.91 5.648-13.623 8.09l9.637-13.787z"
        ></path>
        <path
          fill="#f1e262"
          d="M568.398 273.721l5.321 45.592c-4.028 31.44-7.756 62.859-9.389 95.054-.464.96-.784 3.005-1.02 5.713l-69.127-34.407z"
        ></path>
        <path
          fill="#f1e262"
          d="M572.129 424.469c1.904-6.601 2.971-11.644 3.016-13.332 2.458.434 5.689.952 9.469 1.53l2.233 19.128z"
        ></path>
        <path
          fill="#ff8600"
          d="M617.455 669.116l-154.72-40.672 94.761-82.6z"
        ></path>
        <path
          fill="#ff5c00"
          d="M617.455 669.116l-9.637 13.787c-27.42 14.21-60.05 20.661-87.379 34.654-6.246 1.764-11.663 3.83-16.509 6.105l-41.195-95.218z"
        ></path>
        <path
          fill="#6a9563"
          d="M449.403 129.908c10.347.249 20.658.535 30.892.845l-25.526 36.466z"
        ></path>
        <path
          fill="#6da066"
          d="M454.769 167.219l25.526-36.466c26.424.801 52.33 1.768 77.01 2.72l1.03 40.875z"
        ></path>
        <path
          fill="#ffda3c"
          d="M557.496 545.844l-63.313-160.171 69.127 34.407c-.749 8.566-.664 23.78-1.648 32.391 4.53-9.471 8.13-19.908 10.467-28.002l14.718 7.326z"
        ></path>
        <path
          fill="#f50"
          d="M503.93 723.662c-19.281 9.051-29.485 21.429-46.514 31.481a332.183 332.183 0 00-6.855-1.826l12.174-124.873z"
        ></path>
        <path
          fill="#ffdd2f"
          d="M494.183 385.673l63.313 160.171-136.69 3.353z"
        ></path>
        <path
          fill="#9cc573"
          d="M454.769 167.219l103.566 7.129-96.857 92.245z"
        ></path>
        <path
          fill="#a4c173"
          d="M461.478 266.593l96.857-92.245 10.063 99.373z"
        ></path>
        <path
          fill="#d0d777"
          d="M494.183 385.673l-32.705-119.08 106.92 7.128z"
        ></path>
        <path
          fill="#ffaf01"
          d="M557.496 545.844l-94.761 82.6-41.929-79.247z"
        ></path>
        <path
          fill="#fff937"
          d="M298.791 490.496l47.799-131.239 74.216 189.94z"
        ></path>
        <path
          fill="#89b46e"
          d="M378.087 128.878c23.628.071 47.567.457 71.316 1.03l5.366 37.311z"
        ></path>
        <path
          fill="#fef775"
          d="M346.59 359.257l114.888-92.664 32.705 119.08z"
        ></path>
        <path
          fill="#fff642"
          d="M346.59 359.257l147.593 26.416-73.377 163.524z"
        ></path>
        <path
          fill="#ff6400"
          d="M399.63 746.045c-21.972-.231-44.854 3.789-68.96 14.779v-.007c-10.191-14.376-29.846-23.565-50.608-32.416l3.215-107.085z"
        ></path>
        <path
          fill="#aacd77"
          d="M461.478 266.593l-91.012-137.726c2.536 0 5.076.004 7.621.011l76.682 38.341z"
        ></path>
        <path
          fill="#d4e781"
          d="M278.245 303.91l85.69-175.035c2.173-.006 4.351-.008 6.531-.008l91.012 137.726z"
        ></path>
        <path
          fill="#ff7900"
          d="M462.735 628.444l-12.174 124.873c-16.506-4.208-33.43-7.088-50.931-7.272L283.277 621.316z"
        ></path>
        <path
          fill="#ffac00"
          d="M462.735 628.444l-179.458-7.128 137.529-72.119z"
        ></path>
        <path
          fill="#fffa84"
          d="M278.245 303.91l183.233-37.317-114.888 92.664z"
        ></path>
        <path
          fill="#ffcb07"
          d="M420.806 549.197l-137.529 72.119 15.514-130.82z"
        ></path>
        <path
          fill="#ffff4b"
          d="M298.791 490.496l-63.314-96.018 111.113-35.221z"
        ></path>
        <path
          fill="#e3ec82"
          d="M196.688 191.252c-1.393-14.263-2.484-27.713-3.106-39.943l135.959-22.079c11.325-.21 22.809-.325 34.394-.355l-85.69 175.035z"
        ></path>
        <path
          fill="#c3c672"
          d="M193.434 148.24c25.369-21.073 75.383-14.151 112.365-18.41 7.819-.253 15.741-.45 23.742-.6l-135.959 22.079a513.781 513.781 0 01-.148-3.069"
        ></path>
        <path
          fill="#ffff78"
          d="M203.622 253.042c-2.582-21.409-5.037-42.352-6.934-61.79l81.557 112.658z"
        ></path>
        <path
          fill="#ffd208"
          d="M283.277 621.316l-53.67-106.082 69.184-24.738z"
        ></path>
        <path
          fill="#ffff6c"
          d="M235.477 394.478l42.768-90.568 68.345 55.347z"
        ></path>
        <path
          fill="#ff6400"
          d="M250.932 715.647c-7.036-3.383-13.724-7.008-19.694-11.086-8.294-5.075-17.289-9.594-26.281-14.208l10.813-88.744z"
        ></path>
        <path
          fill="#ff7f00"
          d="M283.277 621.316l-3.215 107.085c-9.755-4.158-19.752-8.242-29.13-12.754L215.77 601.609z"
        ></path>
        <path
          fill="#ffbc00"
          d="M215.77 601.609l13.837-86.375 53.67 106.082z"
        ></path>
        <path
          fill="#fffd33"
          d="M229.607 515.234l5.87-120.756 63.314 96.018z"
        ></path>
        <path
          fill="#ff7c00"
          d="M204.957 690.353c-24.065-12.35-48.109-25.384-58.632-51.58a4991.987 4991.987 0 01-6.193-12.615l75.638-24.549z"
        ></path>
        <path
          fill="#ffff59"
          d="M235.477 394.478l-17.634-5.783c-1.204-20.344-3.386-42.861-5.976-66.168l66.378-18.617z"
        ></path>
        <path
          fill="#ffff70"
          d="M211.867 322.527c-2.537-22.836-5.465-46.429-8.245-69.485l74.623 50.868z"
        ></path>
        <path
          fill="#fff800"
          d="M100.269 538.457c-8.426-20.992-15.953-42.375-22.191-64.593l8.383-36.116c16.53-13.906 43.371-19.52 63.854-27.426l79.292 104.912z"
        ></path>
        <path
          fill="#ffff28"
          d="M229.607 515.234l-79.292-104.912a125.343 125.343 0 006.599-2.746c9.317-2.432 28.6-7.889 40.848-5.026 9.879 8.786 12.721 25.898 17.711 55.465 3.817-16.185 4.069-40.588 2.37-69.32l17.634 5.783z"
        ></path>
        <path
          fill="#fc0"
          d="M215.77 601.609l-105.039-38.247a884.407 884.407 0 01-10.462-24.905l129.338-23.223z"
        ></path>
        <path
          fill="#ffb200"
          d="M140.132 626.158c-10.286-21.025-20.22-41.804-29.401-62.796l105.039 38.247z"
        ></path>
        <path
          fill="#fff400"
          d="M73.46 456.281c2.514-7.556 7.103-13.571 13.001-18.533l-8.383 36.116a531.514 531.514 0 01-4.618-17.583"
        ></path>
      </g>
    </g>
  </g>
</svg>
