<svg
  xmlns="http://www.w3.org/2000/svg"
  width="800"
  height="800"
  version="1.1"
  viewBox="0 0 800 800"
  xmlSpace="preserve"
>
  <defs>
    <clipPath id="clipPath139503" clipPathUnits="userSpaceOnUse">
      <path d="M0 600h600V0H0z"></path>
    </clipPath>
  </defs>
  <g transform="matrix(1.33333 0 0 -1.33333 0 800)">
    <g>
      <g
        fillOpacity="1"
        fillRule="nonzero"
        stroke="none"
        clipPath="url(#clipPath139503)"
      >
        <path
          fill="#006d8c"
          d="M316.006 523.769c-2.968.692-3.303.989-6.354-2.202-.121-.087-.244-.17-.367-.253l7.565-8.668z"
        ></path>
        <path
          fill="#036a95"
          d="M309.285 521.314c-2.332-1.565-5.068-2.496-8.99-2.765-5.244-.838-8.553-3.933-10.678-7.179l27.233 1.276z"
        ></path>
        <path
          fill="#00908a"
          d="M363.275 494.275c-2.748 1.627-5.179 3.753-6.14 5.5-2.676.022-3.97.825-4.858 1.913l-1.416-15.833z"
        ></path>
        <path
          fill="#008a96"
          d="M350.861 485.855l1.416 15.833c-1.321 1.617-1.745 3.865-4.469 5.123-.669 3.434-4.333 5.88-7.157 5.974-3.717-.564-1.672 5.558-7.794 6.604-1.402.666-4.607.767-8.222 1.631l-7.785-8.374z"
        ></path>
        <path
          fill="#007c89"
          d="M324.635 521.02c-1.922.458-3.959 1.129-5.905 2.216a34.48 34.48 0 00-2.724.533l.844-11.123z"
        ></path>
        <path
          fill="#009b8f"
          d="M372.775 485.125c-.593.377-1.239.879-1.95 1.543.497 1.637-2.575 4.928-4.792 6.203-.926.395-1.858.873-2.758 1.404l-12.414-8.42z"
        ></path>
        <path
          fill="#00a599"
          d="M364.922 466.095l22.34 8.115c-2.653 2.438 5.984 5.956 4.605 7.386-6.045-.354-4.683-.697-9.404.925-3.904 3.374-5.561-.015-9.688 2.604l-21.914.73z"
        ></path>
        <path
          fill="#59a093"
          d="M273.54 477.436c-1.15-1.991-2.521-3.916-3.653-6.026-1.975-.432-2.271-2.844-1.368-3.836.815-1.27 1.436-2.595 1.957-3.952l5.331-.187z"
        ></path>
        <path
          fill="#0099a4"
          d="M350.861 485.855l-34.011 26.791 12.73-51.492z"
        ></path>
        <path
          fill="#0180a3"
          d="M316.85 512.646l-27.233-1.276c-2.345-3.582-3.248-7.348-3.713-8.468-1.548-2.742-3.531-7.844-5.779-9.245-3.835-1.284-6.068-5.982-4.209-9.159-.13-2.646-1.122-4.893-2.376-7.062l2.267-14.001z"
        ></path>
        <path
          fill="#0098a9"
          d="M316.85 512.646l-41.043-49.211 53.773-2.281z"
        ></path>
        <path
          fill="#00a592"
          d="M414.514 465.904l-.135 2.529c-4.627-2.365-11.22-3.213-13.154 2.148-6.434 2.77 2.334-3.119-2.396-1.338-1.673 4.396-4.154 3.653-8.837 3.753-1.379.356-2.244.767-2.73 1.214l-22.34-8.115z"
        ></path>
        <path
          fill="#009487"
          d="M420.481 470.706c-1.667-.691-3.218-1.218-4.461-1.319a16.625 16.625 0 00-1.641-.954l.135-2.529z"
        ></path>
        <path
          fill="#009488"
          d="M415.826 464.854c1.103.685 2.543 1.685 3.375 1.845 3.088 3.439 9.234 4.886 14.477 7.168-1.375 2.93-7.873-.955-13.197-3.161l-5.967-4.802z"
        ></path>
        <path
          fill="#00aaa4"
          d="M364.922 466.095l-14.061 19.76-21.281-24.701z"
        ></path>
        <path
          fill="#00b2af"
          d="M275.807 463.435l36.862-40.663 16.911 38.382z"
        ></path>
        <path
          fill="#8ec590"
          d="M270.476 463.622c.6-1.562 1.066-3.168 1.537-4.787l3.794 4.6z"
        ></path>
        <path
          fill="#00a194"
          d="M414.187 463.571c.142.227.252.44.324.632.257.021.739.293 1.315.651l-1.312 1.05z"
        ></path>
        <path
          fill="#00a194"
          d="M416.377 443.53c2.062-1.618 7.375-11.368 7.803-16.895 2.699 8.389-3.508 16.938-9.412 21.687 4.75 2.438 1.171 2.184-2.509 1.513l-.536-3.826a88.521 88.521 0 004.654-2.479"
        ></path>
        <path
          fill="#00a194"
          d="M411.445 404.598c.149-1.016-1.22-.312-1.322.05-.535 2.326-2.123 4.377-3.34 6.164l-.801-5.714c1.164-2.008 3.25-2.597 3.332-5.501l3.428 5.335a27.746 27.746 0 00-1.062 2.804c-.569-1.571-2.895 6.052-1.588 4.838 5.594-3.332 2.077 3.735-.124 2-.843.731-1.573 1.776-2.244 2.938l-.738-5.26c1.639-2.561 2.969-6.508 4.459-7.654"
        ></path>
        <path
          fill="#00af9b"
          d="M402.127 408.693c-4.527 5.328-.685-.964 1.648-3.722 1.043-1.213-.636 3.928-1.648 3.722"
        ></path>
        <path
          fill="#00af9b"
          d="M409.773 461.391c-.925-2.688-7.942 1.151-2.979.739-3.594.805 7.593 3.808 2.979-.739m-20.146-25.865c-1.486-3.03 1.578-2.602 1.268-6.724 3.982-4.209 1.882-7.717 4.751-9.241 1.72-1.732-1.461-.526-1.64-.464-.786 2.053-3.983.56-3.99 4.948-2.723 4.208-4.241 11.252-3.409 17.435.748-1.629 1.231-2.13 3.02-5.954m13.277-14.749c2.521-6.028-4.2 3.61-4.877 4.769-4.69 8.374 2.521-3.007 4.877-4.769m2.303-4.037l-.467-.517c-4.2 3.135.467 1.765.467.517m-23.134 29.809c-.374 5.589 2.015-3.742 2.248-5.944-.895-5.285-1.665 6.204-2.248 5.944m-17.151 19.546l9.562-18.245c-.652 3.932-1.509 8.349.043 6.232.725-2.625.078-5.301 1.727-7.125.725-2.262 2.129-5.514 3.367-8.906l12.462-23.775c.647-.2 1.528-1.486 1.776-3.389l.05-.095c.202 2.394 2.04-.717 5.013-4.308 5.881-7.417 2.442.972-.895 3.649 1.222 1.765-6.044 5.81-2.302 4.173 7.001-1.778-6.262 4.169-2.661 3.173 6.885.911 7.965-7.616 12.237-10.384a5.528 5.528 0 01.681-1.997l.801 5.714c-.849 1.248-1.517 2.367-1.513 3.358.615-.396 1.181-1.084 1.716-1.918l.738 5.26c-1.642 2.845-2.917 6.401-4.585 7.804-1.331 4.155-4.778 4.649-5.757 6.87-4.278 6.109-6.822 12.142-9.132 18.276 1.291.859 4.783-7.573 3.928-7.815 1.991-3.566 3.703-5.223 4.745-8.37 3.399.335-.987 3.174-.194 6.787-1.167-2.695-4.598 7.095-4.847 8.973 3.501-.54 3.719-5.449 6.052-9.432 1.113-5.456 4.373-.474.839 3.548-4.449 6.172.741 8.218 5.524 4.068.772.803 4.353-.696 7.426-2.212l.536 3.826-.043-.008c-6.169-2.621-12.578 5.652-7.103 8.452 3.208-.448 7.693 3.1 9.074 5.292l.327 2.333z"
        ></path>
        <path
          fill="#00baa8"
          d="M393.92 409.471c.016.381.006.744-.024 1.091a11.26 11.26 0 01.024-1.091"
        ></path>
        <path
          fill="#00baa8"
          d="M393.896 410.562c.002.082.007.159.013.23l-.05.095c.015-.107.026-.215.037-.325"
        ></path>
        <path
          fill="#00baa8"
          d="M387.075 421.026c-2.948-1.081.163 2.746-5.141 1.195-5.08.536.995 4.2 1.671 4.06-.148 5.305 2.653-3.287 3.47-5.255m-7.102-9.832c-3.735-.809-.42 6.763 0 0m-8.245 7.728c-1.968-4.64-2.435 2.552-1.354 2.381.458 1.182.233 5.468 1.423-1.035zm9.473 14.22c3.283-6.41-1.687 1.606-1.82-4.885 5.313 3.719-2.621-4.823-.248-3.913l-.125-.444c-5.414 1.825-3.734 13.19-4.076 19.039.217.673-.082 2.716-.448 4.911l-9.562 18.245-13.682-63.083 37.049-8.129c-2.154 2.23-6.06 6.226-8.448 9.244 2.097-.728 6.405-5.788 8.764-9.314l3.797-.834c-2.894 3.236-2.47 7.947-6.439 8.48 5.009.424-3.742 1.107-1.852 4.157-.91.222-3.438 9.37-3.042 13.131 9.359 2.054 10.579-9.07 9.39-15.97.35-.164 1.088-3.181.987-6.433 2.334.035.794 9.023.654 12.582-1.2 3.371-.763 4.581-.017 4.35l-12.462 23.775c.598-1.635 1.156-3.303 1.58-4.909"
        ></path>
        <path
          fill="#00b7aa"
          d="M351.24 403.012l13.682 63.083-35.342-4.941z"
        ></path>
        <path
          fill="#2ec5b4"
          d="M312.669 422.772l-36.862 40.663.924-17.153c1.871-6.969 2.19-14.428 1.519-21.646a9.468 9.468 0 01-.312-.759l.91-16.875z"
        ></path>
        <path
          fill="#79d8a3"
          d="M272.013 458.835c.882-3.036 1.784-6.119 3.631-9.051.409-1.15.77-2.319 1.087-3.502l-.924 17.153z"
        ></path>
        <path
          fill="#79d8a3"
          d="M277.938 423.877c-1.219-3.37-.542-7.116-3.702-10.446-1.817-1.657-3.75-2.822-5.724-3.676l10.336-2.753z"
        ></path>
        <path
          fill="#00bdb2"
          d="M329.58 461.154l-16.911-38.382 38.571-19.76z"
        ></path>
        <path
          fill="#009795"
          d="M409.314 399.172c3.01-1.123 4.146-4.369 4.688-7.969l4.568-.1c-1.114 5.192-3.925 9.458-5.828 13.829l-3.428-5.335a6.69 6.69 0 000-.425"
        ></path>
        <path
          fill="#00969d"
          d="M414.915 382.141c3.602-7.901.358 11.36 3.462 3.713 3.291-9.042 2.295 1.564.271 4.878-.023.124-.05.247-.078.371l-4.568.1c.473-3.144.492-6.558.913-9.062"
        ></path>
        <path
          fill="#00c0ae"
          d="M389.129 394.007c-.233.246-.518.542-.84.876l-37.049 8.129 18.432-24.131 19.674 7.174c-1.29 4.2 1.263 3.836 3.447 1.257l4.988 1.819c-1.879 1.286-3.715 2.682-5.121 4.572-.09.091-.174.184-.258.276l-3.797.834c.188-.279.364-.549.524-.806"
        ></path>
        <path
          fill="#cb9e29"
          d="M230.244 390.883l.705 2.392c-.294-.744-.53-1.54-.705-2.392"
        ></path>
        <path
          fill="#cb9e29"
          d="M230.056 390.244c-1.081-2.449-2.427-6.568-3.787-11.309l.326-.435z"
        ></path>
        <path fill="#cf6e00" d="M226.269 378.935l-.143-.5.469.065z"></path>
        <path
          fill="#53e6bd"
          d="M312.669 422.772l-33.821-15.77 20.901-36.672z"
        ></path>
        <path
          fill="#28d7ba"
          d="M351.24 403.012l-38.571 19.76-12.92-52.442z"
        ></path>
        <path
          fill="#cef190"
          d="M278.848 407.002l-10.336 2.753c-5.67-2.454-11.691-2.329-16.329-3.757-7.728-2.623-17.962-4.444-21.234-12.723l-.705-2.392c-.026-.127-.052-.254-.075-.385l-.113-.254-3.461-11.744z"
        ></path>
        <path
          fill="#d4ffaa"
          d="M278.848 407.002L226.595 378.5l45.602-15.01z"
        ></path>
        <path
          fill="#98ffba"
          d="M299.749 370.33l-20.901 36.672-6.651-43.512z"
        ></path>
        <path
          fill="#13d2b9"
          d="M369.672 378.881l-18.432 24.131-51.491-32.682z"
        ></path>
        <path
          fill="#00b4a7"
          d="M393.912 385.719c1.463-3.482 3.882-8.794 3.532-10.615 3.757-9.342.583 4.205.443 7.129-4.566 5.364 4.956-.478 6.884-5.133 4.668-6.507 5.159.031 1.463 3.411-1.239 4.173-4.92 6.199-8.453 8.62l-4.988-1.819c.394-.464.775-.999 1.119-1.593"
        ></path>
        <path
          fill="#00b4a7"
          d="M391.169 373.566c.011.183.021.362.036.535 1.604.045 2.134-.409 2.281-1.107l3.207-.793c-2.211 3.88-6.074 8.019-6.92 12.646a16.76 16.76 0 00-.427 1.208l-19.674-7.174z"
        ></path>
        <path
          fill="#73f6c1"
          d="M304.309 314.468l65.363 64.413-69.923-8.551z"
        ></path>
        <path
          fill="#e7d255"
          d="M226.595 378.5l6.08-59.662 39.522 44.652z"
        ></path>
        <path
          fill="#dd5800"
          d="M226.126 378.435l-.182-.646.651.711z"
        ></path>
        <path
          fill="#e87b00"
          d="M226.595 378.5l-.651-.711c-3.236-11.489-6.445-25.993-6.276-29.318-1.323-2.172-3.713-14.638-5.799-25.022l18.806-4.611z"
        ></path>
        <path
          fill="#00beb5"
          d="M367.34 315.752c1.465-1.657 2.546-4.578 3.422-7.78l25.701 23.406-26.791 47.503-4.182-62.418c.68.777 1.444.433 1.85-.711"
        ></path>
        <path
          fill="#59ecbf"
          d="M361.373 302.947c1.294 4.795 2.504 9.183 3.197 11.412.247 1.022.573 1.707.92 2.104l4.182 62.418-65.363-64.413z"
        ></path>
        <path
          fill="#00b4ac"
          d="M394.316 368.539c-.886 5.391 1.495.871 3.852-.062-.207 1.219-.754 2.458-1.475 3.724l-3.207.793c.252-1.196-.623-3.109.83-4.455"
        ></path>
        <path
          fill="#00b4ac"
          d="M396.463 331.378l1.93 2.818c-.485 1.621-.916 2.994-1.276 4.006.016 3.145-6.464 25.752-5.948 35.364l-21.497 5.315z"
        ></path>
        <path
          fill="#efe669"
          d="M272.197 363.49l-39.522-44.652 22.041-3.801z"
        ></path>
        <path
          fill="#b4ffc6"
          d="M299.749 370.33l-27.552-6.84 32.112-49.022z"
        ></path>
        <path
          fill="#009da6"
          d="M398.916 332.418c-.18.619-.355 1.214-.523 1.778l-1.93-2.818z"
        ></path>
        <path
          fill="#ecffb6"
          d="M272.197 363.49l-17.481-48.453 49.593-.569z"
        ></path>
        <path
          fill="#0089a4"
          d="M399.606 330.014c-.237.835-.467 1.638-.69 2.404l-2.453-1.04z"
        ></path>
        <path
          fill="#f6ff9c"
          d="M304.309 314.468l-49.593.569 15.201-35.341z"
        ></path>
        <path
          fill="#f06b00"
          d="M232.675 318.838l-18.806 4.611c-1.201-5.983-2.302-11.275-3.038-13.508-2.661-7.211-6.168-13.068-10.089-19.898-2.975-2.919-5.261-6.239-7.075-9.814l1.577-7.563z"
        ></path>
        <path
          fill="#ea5200"
          d="M193.667 280.229a52.767 52.767 0 01-2.706-6.406l4.283-1.157z"
        ></path>
        <path
          fill="#0090a9"
          d="M401.023 279.696l15.248 6.95c-2.532 5.394-6.81 13.591-8.605 16.606-2.046 4.808-5.453 17.601-8.06 26.762l-3.143 1.364z"
        ></path>
        <path
          fill="#11bcb3"
          d="M370.762 307.972c1.058-3.872 1.817-8.158 2.59-11.125l27.671-17.151-4.56 51.682z"
        ></path>
        <path
          fill="#b4ffc6"
          d="M360.627 300.179l.746 2.768-57.064 11.521 8.17-40.472z"
        ></path>
        <path
          fill="#f97d00"
          d="M232.675 318.838l-37.431-46.172 32.491-1.33z"
        ></path>
        <path
          fill="#f8b31a"
          d="M254.716 315.037l-22.041 3.801-4.94-47.502z"
        ></path>
        <path
          fill="#006a9c"
          d="M416.271 286.646l-15.248-6.95 17.594 1.399a28.95 28.95 0 01-.552 1.38c-.297.879-.948 2.368-1.794 4.171"
        ></path>
        <path
          fill="#f6ffc0"
          d="M312.479 273.996l-8.17 40.472-34.392-34.772z"
        ></path>
        <path
          fill="#fbce39"
          d="M232.207 276.158c2.645 5.507 8.386 15.713 9.77 18.016 1.564 3.524 4.364 2.925 7.647-.187 1.286-5.597 2.269-11.686 3.116-17.696l17.177 3.405-15.201 35.341-26.981-43.701 2.063.408c.949 1.84 1.771 3.379 2.409 4.414"
        ></path>
        <path
          fill="#4ad1b0"
          d="M374.068 294.555c2.825-5.702 4.722-12.049 5.781-18.871.617-2.562 2.579-6.016 4.974-9.678l16.2 13.69-27.671 17.151c.234-.902.47-1.682.716-2.292"
        ></path>
        <path
          fill="#9afdb8"
          d="M360.596 260.63c-1.307 2.52-2.473 4.639-3.361 5.93-2.745 5.522-2.177 11.543-.839 17.836.735 2.633 2.485 9.274 4.231 15.783l-48.148-26.183z"
        ></path>
        <path
          fill="#d7ffa5"
          d="M364.522 252.826l-36.272-15.502 19.951-5.89 18.101 17.835a840.988 840.988 0 00-1.78 3.557"
        ></path>
        <path
          fill="#e0ffb2"
          d="M360.596 260.63l-48.117 13.366 15.771-36.672 36.272 15.502c-1.354 2.721-2.702 5.44-3.926 7.804"
        ></path>
        <path
          fill="#449396"
          d="M403.873 241.504l34.744-2.896c-1.554 1.607-3.381 2.859-6.098 3.681-8.41 2.926-10.767 11.513-10.447 16.864-.109 1.504-.217 3.045-.34 4.602l-20.709 15.941z"
        ></path>
        <path
          fill="#faf574"
          d="M269.917 279.696l2.28-41.422 40.282 35.722z"
        ></path>
        <path
          fill="#287392"
          d="M421.732 263.755c-.472 5.957-1.184 12.14-3.115 17.34l-17.594-1.399z"
        ></path>
        <path
          fill="#e95b00"
          d="M195.244 272.666l-4.283 1.157a77.638 77.638 0 01-1.825-6.035c-2.466-6.144-4.115-12.244-5.508-18.405-1.461-4.417-2.27-8.532-4.39-11.63l4.985-6.89z"
        ></path>
        <path
          fill="#e05300"
          d="M179.238 237.753c-1.613-2.357-3.986-4.124-7.986-4.985-4.179-.781-7.616-3.322-11.073-5.616l24.044 3.711z"
        ></path>
        <path
          fill="#fcbf1e"
          d="M229.798 271.744l-2.063-.408 1.342-.998c.247.485.488.955.721 1.406"
        ></path>
        <path
          fill="#fcbf1e"
          d="M252.74 276.291c.213-1.515.419-3.024.617-4.52.623-6.394-1.011-10.625-2.776-16.351-.048-.31-.102-.627-.162-.952l21.778-16.194-2.28 41.422z"
        ></path>
        <path
          fill="#50bfa2"
          d="M396.885 247.703a10.247 10.247 0 001.58-3.408l5.408-2.791-2.85 38.192-16.2-13.69c4.486-6.858 10.493-14.449 12.062-18.303"
        ></path>
        <path
          fill="#fb8700"
          d="M244.739 238.058c-.67-1.254-1.51-2.611-2.415-4.025l29.873 4.241-21.778 16.194c-.834-4.521-2.857-10.546-5.68-16.41"
        ></path>
        <path
          fill="#fb8700"
          d="M227.735 271.336l-5.07-13.38c2.272 4.141 4.536 8.699 6.412 12.382z"
        ></path>
        <path
          fill="#f77a00"
          d="M216.96 248.947c1.74 2.114 3.726 5.403 5.705 9.009l5.07 13.38-32.491 1.33 12.862-33.033c3.588 3.599 7.065 7.103 8.854 9.314"
        ></path>
        <path
          fill="#f4f77a"
          d="M272.197 238.274l56.053-.95-15.771 36.672z"
        ></path>
        <path
          fill="#f27000"
          d="M208.106 239.633l-12.862 33.033-11.021-41.803 14.811-.608c2.262 2.558 5.716 6.01 9.072 9.378"
        ></path>
        <path
          fill="#9be6a1"
          d="M398.834 240.593l5.039.911-5.408 2.791c.326-1.274.397-2.521.369-3.702"
        ></path>
        <path
          fill="#9be6a1"
          d="M366.302 249.269l-18.101-17.835 25.721 4.652c-.473.812-1.012 1.708-1.729 2.656-1.447 1.893-3.605 5.987-5.891 10.527"
        ></path>
        <path
          fill="#e15a00"
          d="M184.223 230.863l-24.044-3.711c-2.056-1.365-4.12-2.641-6.351-3.408-4.109-2.57-4.67-6.437-5.866-10.695l32.081-14.297z"
        ></path>
        <path
          fill="#fa8300"
          d="M242.324 234.033c-2.913-4.553-6.501-9.717-7.255-14.085-5.804.507-11.641.614-17.445 1.037l20.182-31.163 34.391 48.452z"
        ></path>
        <path
          fill="#fb8600"
          d="M272.197 238.274l-34.391-48.452 30.591.949z"
        ></path>
        <path
          fill="#f5bc2b"
          d="M272.197 238.274l35.722-60.613 20.331 59.663z"
        ></path>
        <path
          fill="#fa8900"
          d="M268.397 190.771l39.522-13.11-35.722 60.613z"
        ></path>
        <path
          fill="#cae98c"
          d="M398.627 237.525l5.246 3.979-5.039-.911c-.027-1.091-.137-2.125-.207-3.068"
        ></path>
        <path
          fill="#cae98c"
          d="M381.163 232.083c-4.753-.679-5.575 1.137-7.241 4.003l-25.721-4.652-.951-32.871 50.289 38.137c-4.756-1.553-16.376-4.617-16.376-4.617"
        ></path>
        <path
          fill="#b9bc73"
          d="M398.596 237.063a31 31 0 00-1.057-.363l-50.289-38.137 64.793-22.042-8.17 64.983-5.246-3.979a19.91 19.91 0 01-.031-.462"
        ></path>
        <path
          fill="#777a7d"
          d="M445.63 204.205c6.005 6.22 2.89 23.027-1.56 27.257-2.129 2.809-3.597 5.231-5.453 7.146l-34.744 2.896z"
        ></path>
        <path
          fill="#a68d78"
          d="M412.043 176.521l20.217 7.73c2.016 3.749 4.678 14.633 12.199 18.958a7.72 7.72 0 011.171.996l-41.757 37.299z"
        ></path>
        <path
          fill="#d85100"
          d="M147.962 213.049c-.309-1.102-.66-2.23-1.128-3.368-1.819-3.734-2.613-10.269-2.488-15.433-.057-2.301.788-4.451 2.029-6.378l33.668 10.882z"
        ></path>
        <path
          fill="#e9b023"
          d="M307.919 177.661l39.331 20.902-19 38.761z"
        ></path>
        <path
          fill="#dedd64"
          d="M328.25 237.324l19-38.761.951 32.871z"
        ></path>
        <path
          fill="#ed6d00"
          d="M194.589 222.064c-11.248 1.058 3.282.499 3.15 6.66.366.461.803.975 1.295 1.531l-14.811.608-4.18-32.111 23.836 23.127c-2.708-.006-5.87.013-9.29.185"
        ></path>
        <path
          fill="#f27800"
          d="M209.399 221.878c-1.482.027-3.356.006-5.52.001l-23.836-23.127 57.763-8.93-20.182 31.163c-2.752.202-5.496.472-8.225.893"
        ></path>
        <path
          fill="#e76800"
          d="M192.303 152.239c6.572-2.342 13.727-4.602 16.365-5.038-.295-3.174-6.27-2.364-4.792-7.219 1.336-3.103 6.896-5.521 6.705-11.204l3.844-1.341c2.742-.528 5.523-1.271 8.151-2.105l15.23 64.49z"
        ></path>
        <path
          fill="#9c3b2a"
          d="M421.505 171.156c4.459 5.388 9.255 11.288 10.71 13.011.015.026.029.057.045.084l-20.217-7.73z"
        ></path>
        <path
          fill="#bb7a21"
          d="M387.912 136.239l24.131 40.282-64.793 22.042z"
        ></path>
        <path
          fill="#df6a00"
          d="M307.919 177.661l42.901-49.243.741.071-4.311 70.074z"
        ></path>
        <path
          fill="#c96000"
          d="M347.25 198.563l4.311-70.074c2.345.23 4.908.505 7.508.804l28.843 6.946z"
        ></path>
        <path
          fill="#e86900"
          d="M180.043 198.752l-1.624-41.675c2.529-.785 4.792-1.406 6.135-1.91 2.204-.898 4.923-1.921 7.749-2.928l45.503 37.583z"
        ></path>
        <path
          fill="#d95600"
          d="M146.375 187.87c2.688-4.175 7.234-7.3 8.511-8.62 1.641-1.742 7.078-11.575 10.937-15.868 2.402-2.861 7.949-4.861 12.596-6.305l1.624 41.675z"
        ></path>
        <path
          fill="#f77a00"
          d="M237.806 189.822l24.701-43.512 5.89 44.461z"
        ></path>
        <path
          fill="#f67400"
          d="M262.507 146.31l45.412 31.351-39.522 13.11z"
        ></path>
        <path
          fill="#ef6f00"
          d="M237.806 189.822l-15.23-64.49c.232-.074.46-.148.689-.224l39.242 21.202z"
        ></path>
        <path
          fill="#e45900"
          d="M305.449 137.569l42.957-9.369c.768.066 1.575.139 2.414.218l-42.901 49.243z"
        ></path>
        <path
          fill="#f36700"
          d="M305.449 137.569l2.47 40.092-45.412-31.351z"
        ></path>
        <path
          fill="#a33a19"
          d="M387.912 136.239l34.854 7.886c-1.191 3.389-3.148 6.559-4.544 8.739.272 3.734-7.212 8.527-4.917 8.712 1.229 1.223 4.605 5.236 8.2 9.58l-9.462 5.365z"
        ></path>
        <path
          fill="#ed5c00"
          d="M262.507 146.31l4.77-8.657c2.881.006 5.766-.279 8.577-.719 6.773-2.124 21.021-4.071 26.595-4.627l3 5.262z"
        ></path>
        <path
          fill="#9f330e"
          d="M388.174 135.015c5.966 1.948 12.649 3.901 15.283 3.1 6.262-.373 9.42-5.973 13.286-4.977 4.613-1.432 1.066.062 5.507.186 2.197 3.203 1.806 7.131.516 10.801l-34.854-7.886z"
        ></path>
        <path
          fill="#eb6100"
          d="M223.265 125.108a92.02 92.02 0 004.383-1.554c3.781.249 5.913 1.743 11.739 4.419.132 1.306 9.887 5.662 13.792 6.534 4.425 2.302 9.254 3.136 14.098 3.146l-4.77 8.657z"
        ></path>
        <path
          fill="#ba3300"
          d="M359.069 129.293c7.965.915 16.283 2.049 19.846 2.725 1.849.492 4.989 1.59 8.454 2.732l.543 1.489z"
        ></path>
        <path
          fill="#db4900"
          d="M306.387 131.89c10.646-1.205 33.383-4.152 36.357-4.042 1.356.024 3.325.153 5.662.352l-42.957 9.369z"
        ></path>
        <path
          fill="#d44f00"
          d="M210.527 128.034a48.248 48.248 0 003.898-.597l-3.844 1.341a8.804 8.804 0 00-.054-.744"
        ></path>
        <path
          fill="#e34d00"
          d="M302.449 132.307a236.172 236.172 0 003.938-.417l-.938 5.679z"
        ></path>
        <path
          fill="#ab3300"
          d="M387.369 134.75l.805.265-.262 1.224z"
        ></path>
      </g>
    </g>
  </g>
</svg>
